<svg xmlns="http://www.w3.org/2000/svg" xmlns:xlink="http://www.w3.org/1999/xlink" width="500" zoomAndPan="magnify" viewBox="0 0 375 374.999991" height="500" preserveAspectRatio="xMidYMid meet" version="1.0"><rect x="-37.5" width="450" fill="#ffffff" y="-37.499999" height="449.999989" fill-opacity="1"/><rect x="-37.5" width="450" fill="#ffffff" y="-37.499999" height="449.999989" fill-opacity="1"/><path fill="#c40000" d="M 357.550781 154.265625 C 352.324219 147.84375 347.386719 141.777344 345.46875 135.859375 C 343.414062 129.535156 343.824219 121.460938 344.253906 112.910156 C 344.886719 100.402344 345.542969 87.464844 338.347656 77.582031 C 331.078125 67.589844 318.5 64.21875 306.335938 60.957031 C 298.128906 58.753906 290.378906 56.675781 285.101562 52.839844 C 279.933594 49.074219 275.621094 42.40625 271.054688 35.347656 C 264.167969 24.699219 257.050781 13.6875 245.132812 9.816406 C 233.710938 6.105469 221.730469 10.683594 210.140625 15.109375 C 202.382812 18.074219 194.355469 21.140625 187.5 21.140625 C 180.644531 21.140625 172.617188 18.074219 164.859375 15.109375 C 153.269531 10.683594 141.292969 6.113281 129.867188 9.816406 C 119.09375 13.316406 112.21875 22.707031 106.101562 32.027344 C 104.21875 34.898438 105.019531 38.746094 107.886719 40.632812 C 110.765625 42.515625 114.613281 41.722656 116.492188 38.847656 C 121.398438 31.375 126.769531 23.894531 133.707031 21.636719 C 140.964844 19.296875 150.414062 22.902344 160.421875 26.722656 C 169.238281 30.089844 178.351562 33.570312 187.5 33.570312 C 196.648438 33.570312 205.761719 30.089844 214.578125 26.722656 C 224.585938 22.898438 234.050781 19.292969 241.289062 21.636719 C 249.011719 24.144531 254.648438 32.867188 260.617188 42.097656 C 265.597656 49.800781 270.75 57.765625 277.789062 62.890625 C 284.929688 68.085938 294.175781 70.5625 303.117188 72.960938 C 313.65625 75.789062 323.613281 78.457031 328.296875 84.894531 C 332.90625 91.222656 332.386719 101.453125 331.839844 112.28125 C 331.367188 121.582031 330.882812 131.195312 333.644531 139.699219 C 336.28125 147.824219 342.191406 155.085938 347.910156 162.113281 C 354.910156 170.714844 361.523438 178.835938 361.523438 187.1875 C 361.523438 195.542969 354.910156 203.664062 347.910156 212.265625 C 342.191406 219.289062 336.28125 226.554688 333.644531 234.675781 C 330.882812 243.183594 331.367188 252.796875 331.839844 262.097656 C 332.386719 272.925781 332.902344 283.15625 328.296875 289.488281 C 323.613281 295.925781 313.65625 298.59375 303.113281 301.421875 C 294.175781 303.816406 284.929688 306.292969 277.789062 311.488281 C 270.75 316.613281 265.597656 324.578125 260.617188 332.28125 C 254.648438 341.511719 249.011719 350.234375 241.292969 352.742188 C 234.054688 355.105469 224.59375 351.484375 214.578125 347.65625 C 205.761719 344.289062 196.648438 340.808594 187.5 340.808594 C 178.351562 340.808594 169.238281 344.289062 160.421875 347.65625 C 150.414062 351.480469 140.953125 355.105469 133.710938 352.742188 C 125.988281 350.234375 120.351562 341.511719 114.378906 332.28125 C 109.402344 324.578125 104.25 316.613281 97.210938 311.488281 C 90.070312 306.292969 80.824219 303.816406 71.882812 301.417969 C 61.34375 298.589844 51.386719 295.921875 46.703125 289.484375 C 42.09375 283.152344 42.613281 272.925781 43.160156 262.097656 C 43.632812 252.796875 44.117188 243.183594 41.355469 234.679688 C 38.71875 226.554688 32.808594 219.289062 27.089844 212.265625 C 20.089844 203.664062 13.476562 195.542969 13.476562 187.1875 C 13.476562 178.835938 20.089844 170.714844 27.089844 162.113281 C 32.808594 155.085938 38.71875 147.824219 41.355469 139.703125 C 44.117188 131.195312 43.632812 121.582031 43.160156 112.28125 C 42.613281 101.453125 42.097656 91.222656 46.703125 84.890625 C 51.386719 78.453125 61.34375 75.785156 71.886719 72.957031 C 80.824219 70.5625 90.070312 68.085938 97.210938 62.890625 C 99.988281 60.867188 100.597656 56.984375 98.578125 54.207031 C 96.558594 51.429688 92.671875 50.8125 89.894531 52.839844 C 84.621094 56.675781 76.871094 58.753906 68.664062 60.953125 C 56.503906 64.214844 43.921875 67.585938 36.652344 77.578125 C 29.460938 87.460938 30.113281 100.398438 30.746094 112.90625 C 31.175781 121.460938 31.585938 129.535156 29.53125 135.859375 C 27.609375 141.777344 22.671875 147.84375 17.449219 154.265625 C 9.382812 164.171875 1.046875 174.417969 1.046875 187.1875 C 1.046875 199.960938 9.382812 210.207031 17.449219 220.113281 C 22.671875 226.535156 27.609375 232.601562 29.53125 238.519531 C 31.585938 244.84375 31.175781 252.917969 30.746094 261.46875 C 30.113281 273.976562 29.457031 286.914062 36.652344 296.796875 C 43.921875 306.789062 56.5 310.160156 68.664062 313.421875 C 76.871094 315.621094 84.621094 317.703125 89.894531 321.539062 C 95.066406 325.304688 99.375 331.972656 103.945312 339.03125 C 110.828125 349.679688 117.949219 360.691406 129.867188 364.5625 C 141.710938 368.296875 153.316406 363.609375 164.859375 359.269531 C 172.617188 356.304688 180.644531 353.238281 187.5 353.238281 C 194.355469 353.238281 202.382812 356.304688 210.140625 359.269531 C 221.730469 363.691406 233.714844 368.261719 245.132812 364.5625 C 257.050781 360.691406 264.167969 349.679688 271.054688 339.03125 C 275.621094 331.972656 279.933594 325.304688 285.101562 321.539062 C 290.378906 317.703125 298.128906 315.625 306.335938 313.425781 C 318.496094 310.164062 331.078125 306.792969 338.347656 296.800781 C 345.539062 286.917969 344.886719 273.980469 344.253906 261.472656 C 343.824219 252.917969 343.414062 244.84375 345.46875 238.519531 C 347.386719 232.601562 352.324219 226.535156 357.550781 220.113281 C 365.613281 210.207031 373.953125 199.960938 373.953125 187.1875 C 373.953125 174.417969 365.613281 164.171875 357.550781 154.265625 Z M 357.550781 154.265625 " fill-opacity="1" fill-rule="nonzero"/><path fill="#c40000" d="M 303.222656 233.085938 C 306.480469 234.1875 310.003906 232.449219 311.109375 229.203125 C 315.695312 215.707031 318.019531 201.574219 318.019531 187.1875 C 318.019531 115.21875 259.46875 56.671875 187.5 56.671875 C 115.53125 56.671875 56.980469 115.21875 56.980469 187.1875 C 56.980469 259.160156 115.53125 317.707031 187.5 317.707031 C 233.203125 317.707031 274.796875 294.433594 298.765625 255.453125 C 300.5625 252.527344 299.648438 248.699219 296.726562 246.902344 C 293.792969 245.105469 289.972656 246.011719 288.175781 248.941406 C 266.488281 284.214844 228.851562 305.277344 187.5 305.277344 C 122.386719 305.277344 69.410156 252.300781 69.410156 187.1875 C 69.410156 122.074219 122.386719 69.101562 187.5 69.101562 C 252.613281 69.101562 305.589844 122.074219 305.589844 187.1875 C 305.589844 200.207031 303.484375 213 299.339844 225.203125 C 298.234375 228.453125 299.972656 231.980469 303.222656 233.085938 Z M 303.222656 233.085938 " fill-opacity="1" fill-rule="nonzero"/><path fill="#c40000" d="M 241.730469 117.945312 L 159.472656 200.203125 L 133.269531 174.007812 C 130.839844 171.578125 126.910156 171.578125 124.480469 174.007812 L 106.902344 191.582031 C 104.476562 194.011719 104.476562 197.945312 106.902344 200.371094 L 155.078125 248.546875 C 156.242188 249.710938 157.824219 250.367188 159.472656 250.367188 C 161.117188 250.367188 162.699219 249.710938 163.867188 248.546875 L 268.097656 144.3125 C 270.523438 141.882812 270.523438 137.949219 268.097656 135.523438 L 250.519531 117.945312 C 248.089844 115.519531 244.160156 115.519531 241.730469 117.945312 Z M 159.472656 235.363281 L 120.085938 195.976562 L 128.875 187.1875 L 155.078125 213.386719 C 157.503906 215.8125 161.4375 215.8125 163.867188 213.386719 L 246.125 131.128906 L 254.914062 139.917969 Z M 159.472656 235.363281 " fill-opacity="1" fill-rule="nonzero"/></svg>