<svg xmlns="http://www.w3.org/2000/svg" xmlns:xlink="http://www.w3.org/1999/xlink" width="1080" zoomAndPan="magnify" viewBox="0 0 810 809.999993" height="1080" preserveAspectRatio="xMidYMid meet" version="1.0"><path fill="#c40000" d="M 797.664062 207.839844 L 11.863281 207.839844 C 7.59375 207.839844 4.269531 204.515625 4.269531 199.773438 L 4.269531 84.464844 C 4.269531 70.226562 15.660156 58.839844 29.421875 58.839844 L 780.105469 58.839844 C 794.339844 58.839844 805.730469 70.226562 805.730469 84.464844 L 805.730469 200.246094 C 805.730469 204.515625 801.933594 207.839844 797.664062 207.839844 Z M 19.929688 192.179688 L 790.070312 192.179688 L 790.070312 84.464844 C 790.070312 78.769531 785.324219 74.5 780.105469 74.5 L 29.421875 74.5 C 24.199219 74.5 19.929688 78.769531 19.929688 84.464844 Z M 19.929688 192.179688 " fill-opacity="1" fill-rule="evenodd"/><path fill="#c40000" d="M 780.105469 810 L 29.421875 810 C 15.660156 810 4.269531 798.613281 4.269531 784.375 L 4.269531 199.773438 C 4.269531 195.5 7.59375 192.179688 11.863281 192.179688 L 797.664062 192.179688 C 801.933594 192.179688 805.730469 195.5 805.730469 199.773438 L 805.730469 784.375 C 805.730469 798.613281 794.339844 810 780.105469 810 Z M 19.929688 207.839844 L 19.929688 784.375 C 19.929688 789.597656 24.199219 793.867188 29.421875 793.867188 L 780.105469 793.867188 C 785.800781 793.867188 790.070312 789.597656 790.070312 784.375 L 790.070312 207.839844 Z M 19.929688 207.839844 " fill-opacity="1" fill-rule="evenodd"/><path fill="#c40000" d="M 747.363281 759.226562 L 62.636719 759.226562 C 58.367188 759.226562 54.570312 755.90625 54.570312 751.632812 L 54.570312 250.542969 C 54.570312 246.273438 58.367188 242.476562 62.636719 242.476562 L 747.363281 242.476562 C 751.632812 242.476562 754.957031 246.273438 754.957031 250.542969 L 754.957031 751.632812 C 754.957031 755.90625 751.632812 759.226562 747.363281 759.226562 Z M 70.226562 743.566406 L 739.296875 743.566406 L 739.296875 258.613281 L 70.226562 258.613281 Z M 70.226562 743.566406 " fill-opacity="1" fill-rule="evenodd"/><path fill="#c40000" d="M 383.882812 372.496094 L 322.671875 372.496094 C 317.925781 372.496094 314.605469 368.699219 314.605469 364.429688 L 314.605469 298.472656 C 314.605469 294.199219 317.925781 290.402344 322.671875 290.402344 L 383.882812 290.402344 C 388.628906 290.402344 391.949219 294.199219 391.949219 298.472656 L 391.949219 364.429688 C 391.949219 368.699219 388.628906 372.496094 383.882812 372.496094 Z M 330.261719 356.835938 L 376.292969 356.835938 L 376.292969 306.0625 L 330.261719 306.0625 Z M 330.261719 356.835938 " fill-opacity="1" fill-rule="evenodd"/><path fill="#c40000" d="M 487.328125 372.496094 L 425.640625 372.496094 C 421.371094 372.496094 417.574219 368.699219 417.574219 364.429688 L 417.574219 298.472656 C 417.574219 294.199219 421.371094 290.402344 425.640625 290.402344 L 487.328125 290.402344 C 491.597656 290.402344 495.394531 294.199219 495.394531 298.472656 L 495.394531 364.429688 C 495.394531 368.699219 491.597656 372.496094 487.328125 372.496094 Z M 433.707031 356.835938 L 479.261719 356.835938 L 479.261719 306.0625 L 433.707031 306.0625 Z M 433.707031 356.835938 " fill-opacity="1" fill-rule="evenodd"/><path fill="#c40000" d="M 590.773438 372.496094 L 529.085938 372.496094 C 524.816406 372.496094 521.019531 368.699219 521.019531 364.429688 L 521.019531 298.472656 C 521.019531 294.199219 524.816406 290.402344 529.085938 290.402344 L 590.773438 290.402344 C 595.042969 290.402344 598.367188 294.199219 598.367188 298.472656 L 598.367188 364.429688 C 598.367188 368.699219 595.042969 372.496094 590.773438 372.496094 Z M 536.679688 356.835938 L 582.707031 356.835938 L 582.707031 306.0625 L 536.679688 306.0625 Z M 536.679688 356.835938 " fill-opacity="1" fill-rule="evenodd"/><path fill="#c40000" d="M 693.742188 372.496094 L 632.054688 372.496094 C 627.785156 372.496094 624.464844 368.699219 624.464844 364.429688 L 624.464844 298.472656 C 624.464844 294.199219 627.785156 290.402344 632.054688 290.402344 L 693.742188 290.402344 C 698.015625 290.402344 701.808594 294.199219 701.808594 298.472656 L 701.808594 364.429688 C 701.808594 368.699219 698.015625 372.496094 693.742188 372.496094 Z M 640.121094 356.835938 L 686.152344 356.835938 L 686.152344 306.0625 L 640.121094 306.0625 Z M 640.121094 356.835938 " fill-opacity="1" fill-rule="evenodd"/><path fill="#c40000" d="M 177.46875 485.429688 L 115.78125 485.429688 C 111.511719 485.429688 108.191406 482.109375 108.191406 477.363281 L 108.191406 411.40625 C 108.191406 407.136719 111.511719 403.339844 115.78125 403.339844 L 177.46875 403.339844 C 181.738281 403.339844 185.535156 407.136719 185.535156 411.40625 L 185.535156 477.363281 C 185.535156 482.109375 181.738281 485.429688 177.46875 485.429688 Z M 123.847656 469.773438 L 169.402344 469.773438 L 169.402344 419 L 123.847656 419 Z M 123.847656 469.773438 " fill-opacity="1" fill-rule="evenodd"/><path fill="#c40000" d="M 280.914062 485.429688 L 219.226562 485.429688 C 214.957031 485.429688 211.160156 482.109375 211.160156 477.363281 L 211.160156 411.40625 C 211.160156 407.136719 214.957031 403.339844 219.226562 403.339844 L 280.914062 403.339844 C 285.183594 403.339844 288.507812 407.136719 288.507812 411.40625 L 288.507812 477.363281 C 288.507812 482.109375 285.183594 485.429688 280.914062 485.429688 Z M 227.292969 469.773438 L 272.847656 469.773438 L 272.847656 419 L 227.292969 419 Z M 227.292969 469.773438 " fill-opacity="1" fill-rule="evenodd"/><path fill="#c40000" d="M 383.882812 485.429688 L 322.671875 485.429688 C 317.925781 485.429688 314.605469 482.109375 314.605469 477.363281 L 314.605469 411.40625 C 314.605469 407.136719 317.925781 403.339844 322.671875 403.339844 L 383.882812 403.339844 C 388.628906 403.339844 391.949219 407.136719 391.949219 411.40625 L 391.949219 477.363281 C 391.949219 482.109375 388.628906 485.429688 383.882812 485.429688 Z M 330.261719 469.773438 L 376.292969 469.773438 L 376.292969 419 L 330.261719 419 Z M 330.261719 469.773438 " fill-opacity="1" fill-rule="evenodd"/><path fill="#c40000" d="M 590.773438 485.429688 L 529.085938 485.429688 C 524.816406 485.429688 521.019531 482.109375 521.019531 477.363281 L 521.019531 411.40625 C 521.019531 407.136719 524.816406 403.339844 529.085938 403.339844 L 590.773438 403.339844 C 595.042969 403.339844 598.367188 407.136719 598.367188 411.40625 L 598.367188 477.363281 C 598.367188 482.109375 595.042969 485.429688 590.773438 485.429688 Z M 536.679688 469.773438 L 582.707031 469.773438 L 582.707031 419 L 536.679688 419 Z M 536.679688 469.773438 " fill-opacity="1" fill-rule="evenodd"/><path fill="#c40000" d="M 693.742188 485.429688 L 632.054688 485.429688 C 627.785156 485.429688 624.464844 482.109375 624.464844 477.363281 L 624.464844 411.40625 C 624.464844 407.136719 627.785156 403.339844 632.054688 403.339844 L 693.742188 403.339844 C 698.015625 403.339844 701.808594 407.136719 701.808594 411.40625 L 701.808594 477.363281 C 701.808594 482.109375 698.015625 485.429688 693.742188 485.429688 Z M 640.121094 469.773438 L 686.152344 469.773438 L 686.152344 419 L 640.121094 419 Z M 640.121094 469.773438 " fill-opacity="1" fill-rule="evenodd"/><path fill="#c40000" d="M 177.46875 598.367188 L 115.78125 598.367188 C 111.511719 598.367188 108.191406 595.042969 108.191406 590.296875 L 108.191406 524.339844 C 108.191406 520.070312 111.511719 516.273438 115.78125 516.273438 L 177.46875 516.273438 C 181.738281 516.273438 185.535156 520.070312 185.535156 524.339844 L 185.535156 590.296875 C 185.535156 595.042969 181.738281 598.367188 177.46875 598.367188 Z M 123.847656 582.707031 L 169.402344 582.707031 L 169.402344 532.40625 L 123.847656 532.40625 Z M 123.847656 582.707031 " fill-opacity="1" fill-rule="evenodd"/><path fill="#c40000" d="M 383.882812 598.367188 L 322.671875 598.367188 C 317.925781 598.367188 314.605469 595.042969 314.605469 590.296875 L 314.605469 524.339844 C 314.605469 520.070312 317.925781 516.273438 322.671875 516.273438 L 383.882812 516.273438 C 388.628906 516.273438 391.949219 520.070312 391.949219 524.339844 L 391.949219 590.296875 C 391.949219 595.042969 388.628906 598.367188 383.882812 598.367188 Z M 330.261719 582.707031 L 376.292969 582.707031 L 376.292969 532.40625 L 330.261719 532.40625 Z M 330.261719 582.707031 " fill-opacity="1" fill-rule="evenodd"/><path fill="#c40000" d="M 487.328125 598.367188 L 425.640625 598.367188 C 421.371094 598.367188 417.574219 595.042969 417.574219 590.296875 L 417.574219 524.339844 C 417.574219 520.070312 421.371094 516.273438 425.640625 516.273438 L 487.328125 516.273438 C 491.597656 516.273438 495.394531 520.070312 495.394531 524.339844 L 495.394531 590.296875 C 495.394531 595.042969 491.597656 598.367188 487.328125 598.367188 Z M 433.707031 582.707031 L 479.261719 582.707031 L 479.261719 532.40625 L 433.707031 532.40625 Z M 433.707031 582.707031 " fill-opacity="1" fill-rule="evenodd"/><path fill="#c40000" d="M 590.773438 598.367188 L 529.085938 598.367188 C 524.816406 598.367188 521.019531 595.042969 521.019531 590.296875 L 521.019531 524.339844 C 521.019531 520.070312 524.816406 516.273438 529.085938 516.273438 L 590.773438 516.273438 C 595.042969 516.273438 598.367188 520.070312 598.367188 524.339844 L 598.367188 590.296875 C 598.367188 595.042969 595.042969 598.367188 590.773438 598.367188 Z M 536.679688 582.707031 L 582.707031 582.707031 L 582.707031 532.40625 L 536.679688 532.40625 Z M 536.679688 582.707031 " fill-opacity="1" fill-rule="evenodd"/><path fill="#c40000" d="M 693.742188 598.367188 L 632.054688 598.367188 C 627.785156 598.367188 624.464844 595.042969 624.464844 590.296875 L 624.464844 524.339844 C 624.464844 520.070312 627.785156 516.273438 632.054688 516.273438 L 693.742188 516.273438 C 698.015625 516.273438 701.808594 520.070312 701.808594 524.339844 L 701.808594 590.296875 C 701.808594 595.042969 698.015625 598.367188 693.742188 598.367188 Z M 640.121094 582.707031 L 686.152344 582.707031 L 686.152344 532.40625 L 640.121094 532.40625 Z M 640.121094 582.707031 " fill-opacity="1" fill-rule="evenodd"/><path fill="#c40000" d="M 177.46875 711.300781 L 115.78125 711.300781 C 111.511719 711.300781 108.191406 707.980469 108.191406 703.707031 L 108.191406 637.277344 C 108.191406 633.003906 111.511719 629.683594 115.78125 629.683594 L 177.46875 629.683594 C 181.738281 629.683594 185.535156 633.003906 185.535156 637.277344 L 185.535156 703.707031 C 185.535156 707.980469 181.738281 711.300781 177.46875 711.300781 Z M 123.847656 695.640625 L 169.402344 695.640625 L 169.402344 645.34375 L 123.847656 645.34375 Z M 123.847656 695.640625 " fill-opacity="1" fill-rule="evenodd"/><path fill="#c40000" d="M 280.914062 711.300781 L 219.226562 711.300781 C 214.957031 711.300781 211.160156 707.980469 211.160156 703.707031 L 211.160156 637.277344 C 211.160156 633.003906 214.957031 629.683594 219.226562 629.683594 L 280.914062 629.683594 C 285.183594 629.683594 288.507812 633.003906 288.507812 637.277344 L 288.507812 703.707031 C 288.507812 707.980469 285.183594 711.300781 280.914062 711.300781 Z M 227.292969 695.640625 L 272.847656 695.640625 L 272.847656 645.34375 L 227.292969 645.34375 Z M 227.292969 695.640625 " fill-opacity="1" fill-rule="evenodd"/><path fill="#c40000" d="M 383.882812 711.300781 L 322.671875 711.300781 C 317.925781 711.300781 314.605469 707.980469 314.605469 703.707031 L 314.605469 637.277344 C 314.605469 633.003906 317.925781 629.683594 322.671875 629.683594 L 383.882812 629.683594 C 388.628906 629.683594 391.949219 633.003906 391.949219 637.277344 L 391.949219 703.707031 C 391.949219 707.980469 388.628906 711.300781 383.882812 711.300781 Z M 330.261719 695.640625 L 376.292969 695.640625 L 376.292969 645.34375 L 330.261719 645.34375 Z M 330.261719 695.640625 " fill-opacity="1" fill-rule="evenodd"/><path fill="#c40000" d="M 487.328125 711.300781 L 425.640625 711.300781 C 421.371094 711.300781 417.574219 707.980469 417.574219 703.707031 L 417.574219 637.277344 C 417.574219 633.003906 421.371094 629.683594 425.640625 629.683594 L 487.328125 629.683594 C 491.597656 629.683594 495.394531 633.003906 495.394531 637.277344 L 495.394531 703.707031 C 495.394531 707.980469 491.597656 711.300781 487.328125 711.300781 Z M 433.707031 695.640625 L 479.261719 695.640625 L 479.261719 645.34375 L 433.707031 645.34375 Z M 433.707031 695.640625 " fill-opacity="1" fill-rule="evenodd"/><path fill="#c40000" d="M 693.742188 711.300781 L 632.054688 711.300781 C 627.785156 711.300781 624.464844 707.980469 624.464844 703.707031 L 624.464844 637.277344 C 624.464844 633.003906 627.785156 629.683594 632.054688 629.683594 L 693.742188 629.683594 C 698.015625 629.683594 701.808594 633.003906 701.808594 637.277344 L 701.808594 703.707031 C 701.808594 707.980469 698.015625 711.300781 693.742188 711.300781 Z M 640.121094 695.640625 L 686.152344 695.640625 L 686.152344 645.34375 L 640.121094 645.34375 Z M 640.121094 695.640625 " fill-opacity="1" fill-rule="evenodd"/><path fill="#c40000" d="M 225.394531 354.9375 C 223.023438 354.9375 220.175781 353.515625 218.753906 351.140625 L 213.058594 341.652344 C 211.160156 337.855469 212.109375 333.109375 215.90625 330.738281 C 219.703125 328.367188 224.921875 329.789062 226.820312 333.585938 L 228.242188 336.433594 L 275.695312 308.910156 C 279.492188 306.539062 284.710938 307.960938 286.609375 311.757812 C 288.980469 315.554688 287.558594 320.296875 283.761719 322.671875 L 229.667969 353.988281 C 228.242188 354.464844 226.820312 354.9375 225.394531 354.9375 Z M 225.394531 354.9375 " fill-opacity="1" fill-rule="evenodd"/><path fill="#c40000" d="M 742.617188 141.40625 L 67.382812 141.40625 C 63.109375 141.40625 59.316406 137.609375 59.316406 133.339844 C 59.316406 129.070312 63.109375 125.273438 67.382812 125.273438 L 742.617188 125.273438 C 746.890625 125.273438 750.210938 129.070312 750.210938 133.339844 C 750.210938 137.609375 746.890625 141.40625 742.617188 141.40625 Z M 742.617188 141.40625 " fill-opacity="1" fill-rule="evenodd"/><path fill="#c40000" d="M 141.878906 141.40625 C 137.609375 141.40625 133.8125 137.609375 133.8125 133.339844 L 133.8125 47.453125 C 133.8125 21.351562 155.167969 0 181.265625 0 C 207.363281 0 228.71875 21.351562 228.71875 47.453125 L 228.71875 66.90625 C 228.71875 71.175781 224.921875 74.5 220.648438 74.5 C 216.378906 74.5 213.058594 71.175781 213.058594 66.90625 L 213.058594 47.453125 C 213.058594 29.894531 198.824219 15.660156 181.265625 15.660156 C 163.707031 15.660156 149.472656 29.894531 149.472656 47.453125 L 149.472656 133.339844 C 149.472656 137.609375 146.152344 141.40625 141.878906 141.40625 Z M 141.878906 141.40625 " fill-opacity="1" fill-rule="evenodd"/><path fill="#c40000" d="M 290.878906 141.40625 C 286.609375 141.40625 282.8125 137.609375 282.8125 133.339844 L 282.8125 47.453125 C 282.8125 21.351562 304.164062 0 330.261719 0 C 356.363281 0 377.714844 21.351562 377.714844 47.453125 L 377.714844 66.90625 C 377.714844 71.175781 374.394531 74.5 369.648438 74.5 C 365.378906 74.5 362.054688 71.175781 362.054688 66.90625 L 362.054688 47.453125 C 362.054688 29.894531 347.820312 15.660156 330.261719 15.660156 C 313.179688 15.660156 298.945312 29.894531 298.945312 47.453125 L 298.945312 133.339844 C 298.945312 137.609375 295.148438 141.40625 290.878906 141.40625 Z M 290.878906 141.40625 " fill-opacity="1" fill-rule="evenodd"/><path fill="#c40000" d="M 439.878906 141.40625 C 435.605469 141.40625 431.808594 137.609375 431.808594 133.339844 L 431.808594 47.453125 C 431.808594 21.351562 453.164062 0 479.261719 0 C 505.359375 0 526.714844 21.351562 526.714844 47.453125 L 526.714844 66.90625 C 526.714844 71.175781 523.390625 74.5 519.121094 74.5 C 514.375 74.5 511.054688 71.175781 511.054688 66.90625 L 511.054688 47.453125 C 511.054688 29.894531 496.820312 15.660156 479.261719 15.660156 C 462.179688 15.660156 447.945312 29.894531 447.945312 47.453125 L 447.945312 133.339844 C 447.945312 137.609375 444.148438 141.40625 439.878906 141.40625 Z M 439.878906 141.40625 " fill-opacity="1" fill-rule="evenodd"/><path fill="#c40000" d="M 588.875 141.40625 C 584.605469 141.40625 581.28125 137.609375 581.28125 133.339844 L 581.28125 47.453125 C 581.28125 21.351562 602.160156 0 628.734375 0 C 654.832031 0 675.710938 21.351562 675.710938 47.453125 L 675.710938 66.90625 C 675.710938 71.175781 672.390625 74.5 668.121094 74.5 C 663.847656 74.5 660.050781 71.175781 660.050781 66.90625 L 660.050781 47.453125 C 660.050781 29.894531 645.816406 15.660156 628.734375 15.660156 C 611.175781 15.660156 596.941406 29.894531 596.941406 47.453125 L 596.941406 133.339844 C 596.941406 137.609375 593.621094 141.40625 588.875 141.40625 Z M 588.875 141.40625 " fill-opacity="1" fill-rule="evenodd"/><path fill="#c40000" d="M 432.285156 467.875 C 429.4375 467.875 426.589844 466.449219 425.167969 464.078125 L 419.945312 454.585938 C 417.574219 450.789062 419 446.046875 422.792969 443.671875 C 426.589844 441.773438 431.335938 442.722656 433.707031 446.519531 L 435.132812 449.367188 L 482.582031 421.84375 C 486.378906 419.949219 491.125 420.894531 493.496094 424.691406 C 495.394531 428.488281 493.972656 433.234375 490.175781 435.605469 L 436.082031 466.925781 C 434.65625 467.875 433.707031 467.875 432.285156 467.875 Z M 432.285156 467.875 " fill-opacity="1" fill-rule="evenodd"/><path fill="#c40000" d="M 225.394531 580.808594 C 223.023438 580.808594 220.175781 579.859375 218.753906 577.011719 L 213.058594 567.523438 C 211.160156 563.726562 212.109375 558.980469 215.90625 556.609375 C 219.703125 554.710938 224.921875 556.132812 226.820312 559.457031 L 228.242188 562.300781 L 275.695312 534.78125 C 279.492188 532.882812 284.710938 533.832031 286.609375 537.628906 C 288.980469 541.421875 287.558594 546.644531 283.761719 548.542969 L 229.667969 579.859375 C 228.242188 580.808594 226.820312 580.808594 225.394531 580.808594 Z M 225.394531 580.808594 " fill-opacity="1" fill-rule="evenodd"/><path fill="#c40000" d="M 535.253906 694.21875 C 532.40625 694.21875 530.035156 692.792969 528.613281 689.945312 L 522.917969 680.457031 C 521.019531 676.660156 521.96875 671.914062 525.765625 670.015625 C 529.5625 667.644531 534.78125 669.070312 536.679688 672.863281 L 538.101562 675.238281 L 585.554688 647.714844 C 589.351562 645.816406 594.570312 647.242188 596.46875 651.035156 C 598.839844 654.359375 597.417969 659.578125 593.621094 661.476562 L 539.527344 692.792969 C 538.101562 693.742188 536.679688 694.21875 535.253906 694.21875 Z M 535.253906 694.21875 " fill-opacity="1" fill-rule="evenodd"/></svg>