<svg xmlns="http://www.w3.org/2000/svg" xmlns:xlink="http://www.w3.org/1999/xlink" width="1080" zoomAndPan="magnify" viewBox="0 0 810 809.999993" height="1080" preserveAspectRatio="xMidYMid meet" version="1.0"><defs><clipPath id="c36f000ee9"><path d="M 0 0 L 807 0 L 807 810 L 0 810 Z M 0 0 " clip-rule="nonzero"/></clipPath></defs><path fill="#c40000" d="M 128.667969 470.558594 L 192.847656 470.558594 C 201.746094 470.558594 208.964844 463.34375 208.964844 454.441406 L 208.964844 390.261719 C 208.964844 381.363281 201.75 374.148438 192.847656 374.148438 L 128.667969 374.148438 C 119.769531 374.148438 112.554688 381.363281 112.554688 390.261719 L 112.554688 454.441406 C 112.554688 463.34375 119.769531 470.558594 128.667969 470.558594 Z M 128.667969 470.558594 " fill-opacity="1" fill-rule="nonzero"/><path fill="#c40000" d="M 128.667969 603.242188 L 192.847656 603.242188 C 201.746094 603.242188 208.964844 596.027344 208.964844 587.125 L 208.964844 522.949219 C 208.964844 514.050781 201.75 506.832031 192.847656 506.832031 L 128.667969 506.832031 C 119.769531 506.832031 112.554688 514.046875 112.554688 522.949219 L 112.554688 587.125 C 112.554688 596.027344 119.769531 603.242188 128.667969 603.242188 Z M 128.667969 603.242188 " fill-opacity="1" fill-rule="nonzero"/><path fill="#c40000" d="M 128.667969 735.925781 L 192.847656 735.925781 C 201.746094 735.925781 208.964844 728.710938 208.964844 719.8125 L 208.964844 655.632812 C 208.964844 646.734375 201.75 639.515625 192.847656 639.515625 L 128.667969 639.515625 C 119.769531 639.515625 112.554688 646.730469 112.554688 655.632812 L 112.554688 719.8125 C 112.554688 728.710938 119.769531 735.925781 128.667969 735.925781 Z M 128.667969 735.925781 " fill-opacity="1" fill-rule="nonzero"/><path fill="#c40000" d="M 290.511719 470.558594 L 354.691406 470.558594 C 363.589844 470.558594 370.804688 463.34375 370.804688 454.441406 L 370.804688 390.261719 C 370.804688 381.363281 363.589844 374.148438 354.691406 374.148438 L 290.511719 374.148438 C 281.609375 374.148438 274.394531 381.363281 274.394531 390.261719 L 274.394531 454.441406 C 274.398438 463.34375 281.613281 470.558594 290.511719 470.558594 Z M 290.511719 470.558594 " fill-opacity="1" fill-rule="nonzero"/><path fill="#c40000" d="M 290.511719 603.242188 L 354.691406 603.242188 C 363.589844 603.242188 370.804688 596.027344 370.804688 587.125 L 370.804688 522.949219 C 370.804688 514.050781 363.589844 506.832031 354.691406 506.832031 L 290.511719 506.832031 C 281.609375 506.832031 274.394531 514.046875 274.394531 522.949219 L 274.394531 587.125 C 274.398438 596.027344 281.613281 603.242188 290.511719 603.242188 Z M 290.511719 603.242188 " fill-opacity="1" fill-rule="nonzero"/><path fill="#c40000" d="M 290.511719 735.925781 L 354.691406 735.925781 C 363.589844 735.925781 370.804688 728.710938 370.804688 719.8125 L 370.804688 655.632812 C 370.804688 646.734375 363.589844 639.515625 354.691406 639.515625 L 290.511719 639.515625 C 281.609375 639.515625 274.394531 646.730469 274.394531 655.632812 L 274.394531 719.8125 C 274.398438 728.710938 281.613281 735.925781 290.511719 735.925781 Z M 290.511719 735.925781 " fill-opacity="1" fill-rule="nonzero"/><path fill="#c40000" d="M 452.355469 470.558594 L 516.535156 470.558594 C 525.433594 470.558594 532.652344 463.34375 532.652344 454.441406 L 532.652344 390.261719 C 532.652344 381.363281 525.4375 374.148438 516.535156 374.148438 L 452.355469 374.148438 C 443.457031 374.148438 436.242188 381.363281 436.242188 390.261719 L 436.242188 454.441406 C 436.242188 463.34375 443.457031 470.558594 452.355469 470.558594 Z M 452.355469 470.558594 " fill-opacity="1" fill-rule="nonzero"/><path fill="#c40000" d="M 516.535156 639.515625 L 452.355469 639.515625 C 443.457031 639.515625 436.242188 646.730469 436.242188 655.632812 L 436.242188 719.8125 C 436.242188 728.710938 443.457031 735.925781 452.355469 735.925781 L 516.535156 735.925781 C 525.433594 735.925781 532.652344 728.710938 532.652344 719.8125 L 532.652344 655.632812 C 532.648438 646.730469 525.433594 639.515625 516.535156 639.515625 Z M 516.535156 639.515625 " fill-opacity="1" fill-rule="nonzero"/><path fill="#c40000" d="M 614.199219 470.558594 L 678.378906 470.558594 C 687.277344 470.558594 694.492188 463.34375 694.492188 454.441406 L 694.492188 390.261719 C 694.492188 381.363281 687.277344 374.148438 678.378906 374.148438 L 614.199219 374.148438 C 605.300781 374.148438 598.082031 381.363281 598.082031 390.261719 L 598.082031 454.441406 C 598.082031 463.34375 605.296875 470.558594 614.199219 470.558594 Z M 614.199219 470.558594 " fill-opacity="1" fill-rule="nonzero"/><path fill="#c40000" d="M 614.199219 603.242188 L 678.378906 603.242188 C 687.277344 603.242188 694.492188 596.027344 694.492188 587.125 L 694.492188 522.949219 C 694.492188 514.050781 687.277344 506.832031 678.378906 506.832031 L 614.199219 506.832031 C 605.300781 506.832031 598.082031 514.046875 598.082031 522.949219 L 598.082031 587.125 C 598.082031 596.027344 605.296875 603.242188 614.199219 603.242188 Z M 614.199219 603.242188 " fill-opacity="1" fill-rule="nonzero"/><g clip-path="url(#c36f000ee9)"><path fill="#c40000" d="M 617.746094 0.359375 C 602.628906 0.359375 590.375 12.617188 590.375 27.730469 L 590.375 82.730469 L 218.082031 82.730469 L 218.082031 27.730469 C 218.082031 12.617188 205.828125 0.359375 190.714844 0.359375 C 175.597656 0.359375 163.34375 12.617188 163.34375 27.730469 L 163.34375 82.730469 L 77.078125 82.730469 C 34.574219 82.730469 0 117.308594 0 159.808594 L 0 735.527344 C 0 778.027344 34.574219 812.605469 77.078125 812.605469 L 729.972656 812.605469 C 772.472656 812.605469 807.046875 778.027344 807.046875 735.527344 L 807.046875 159.808594 C 807.046875 117.308594 772.472656 82.730469 729.972656 82.730469 L 645.117188 82.730469 L 645.117188 27.730469 C 645.117188 12.617188 632.863281 0.359375 617.746094 0.359375 Z M 163.34375 121.996094 L 163.34375 155.980469 C 163.34375 171.097656 175.597656 183.351562 190.714844 183.351562 C 205.828125 183.351562 218.082031 171.097656 218.082031 155.980469 L 218.082031 121.996094 C 228.003906 129.996094 234.347656 142.246094 234.347656 155.980469 C 234.347656 180.082031 214.8125 199.617188 190.710938 199.617188 C 166.609375 199.617188 147.074219 180.082031 147.074219 155.980469 C 147.074219 142.246094 153.421875 129.996094 163.34375 121.996094 Z M 769.074219 735.527344 C 769.074219 757.089844 751.53125 774.628906 729.972656 774.628906 L 77.078125 774.628906 C 55.515625 774.628906 37.976562 757.089844 37.976562 735.527344 L 37.976562 335.445312 L 769.074219 335.445312 Z M 661.378906 155.980469 C 661.378906 180.082031 641.84375 199.617188 617.742188 199.617188 C 593.640625 199.617188 574.105469 180.082031 574.105469 155.980469 C 574.105469 142.246094 580.453125 129.996094 590.371094 121.996094 L 590.371094 155.976562 C 590.371094 171.09375 602.625 183.347656 617.742188 183.347656 C 632.855469 183.347656 645.109375 171.09375 645.109375 155.976562 L 645.109375 121.996094 C 655.035156 129.996094 661.378906 142.246094 661.378906 155.980469 Z M 661.378906 155.980469 " fill-opacity="1" fill-rule="nonzero"/></g><path fill="#c40000" d="M 479.367188 611.75 L 555.84375 535.269531 C 563.261719 527.855469 563.261719 515.832031 555.84375 508.417969 C 548.429688 501.003906 536.410156 501.003906 528.992188 508.417969 L 479.367188 558.042969 L 459.4375 538.113281 C 452.023438 530.699219 440 530.699219 432.585938 538.113281 C 425.167969 545.53125 425.167969 557.550781 432.585938 564.964844 Z M 479.367188 611.75 " fill-opacity="1" fill-rule="nonzero"/></svg>