<svg xmlns="http://www.w3.org/2000/svg" xmlns:xlink="http://www.w3.org/1999/xlink" width="500" zoomAndPan="magnify" viewBox="0 0 375 374.999991" height="500" preserveAspectRatio="xMidYMid meet" version="1.0"><defs><clipPath id="6bb77e2545"><path d="M 29.0625 0 L 346 0 L 346 375 L 29.0625 375 Z M 29.0625 0 " clip-rule="nonzero"/></clipPath></defs><g clip-path="url(#6bb77e2545)"><path fill="#c40000" d="M 210.910156 169.984375 C 211.167969 219.535156 211.71875 225.222656 202.453125 271.589844 C 201.457031 276.589844 200.460938 281.992188 199.695312 286.988281 L 197.921875 298.894531 C 197.746094 300.507812 197.726562 301.824219 196.925781 303.078125 C 195.929688 299.5625 186.554688 281.039062 182.953125 270.039062 C 178.902344 257.667969 176.953125 232.859375 175.9375 218.191406 C 175.492188 211.878906 174.351562 212.601562 178.9375 209.734375 C 191.167969 202.105469 202.398438 193.070312 206.460938 178.226562 C 206.894531 176.667969 207.199219 174.808594 207.589844 173.277344 C 207.882812 172.128906 207.867188 171.976562 208.578125 171.300781 Z M 164.570312 158.925781 C 168.683594 157.566406 176.410156 159.078125 179.230469 164.800781 C 182.25 170.945312 178.644531 176.472656 174.191406 178.226562 C 159.132812 184.152344 152.839844 162.808594 164.570312 158.925781 Z M 182.835938 361.085938 C 182.335938 356.378906 187.5 354.714844 192.886719 352.808594 C 199.808594 350.363281 202.480469 351.9375 202.597656 343.785156 C 203.003906 314.597656 211.746094 274.898438 216.453125 246.636719 C 220.488281 222.410156 220.050781 201.164062 219.980469 176.3125 C 219.960938 171.355469 220.71875 141.925781 219.820312 139.851562 C 219.179688 138.367188 211.445312 133.71875 211.222656 146.03125 C 211.167969 149.074219 211.148438 152.109375 211.160156 155.152344 C 211.160156 159.765625 210.125 159.285156 208.238281 161.8125 C 207.171875 160.699219 207.074219 159.140625 206.691406 157.496094 C 206.324219 155.890625 206.003906 154.699219 205.542969 153.167969 C 203.878906 147.738281 201.589844 142.335938 199.222656 137.226562 C 197.371094 133.238281 199.488281 132.972656 201.722656 130.125 C 206.804688 123.625 217.335938 111.414062 224.402344 108.414062 C 227.296875 107.1875 230.269531 106.855469 232.929688 105.832031 C 235.566406 104.808594 237.257812 101.515625 234.558594 98.882812 C 232.789062 97.144531 229.84375 96.105469 227.527344 94.804688 C 189.9375 73.71875 202.230469 14.757812 246.898438 12.800781 C 260.828125 12.183594 272.511719 18.390625 279.457031 24.734375 C 291.417969 35.667969 297.339844 58.007812 289.550781 75.179688 C 288.304688 77.929688 287.101562 80.144531 285.582031 82.324219 C 278.023438 93.140625 269.871094 95.410156 268.925781 98.96875 C 267.386719 104.78125 276.011719 107.273438 279.792969 109.632812 C 290.058594 116.023438 294.5625 121.382812 300.703125 133.105469 C 305.714844 142.65625 310.671875 153.675781 314.898438 163.796875 C 319.886719 175.757812 330.238281 199.5625 333.113281 212.199219 C 334.527344 218.429688 334.652344 228.523438 325.894531 222.945312 C 318.585938 218.289062 313.839844 205.3125 309.507812 194.960938 C 305.347656 185.042969 300.082031 173.765625 295.023438 164.527344 C 292.984375 160.804688 284.914062 143.378906 279.234375 150.125 C 276.972656 152.804688 279.671875 155.695312 280.855469 157.496094 C 287.28125 167.304688 287.109375 181.589844 288.046875 194.914062 C 289.273438 212.308594 292.949219 269.664062 300.640625 282.492188 C 308.152344 295.03125 335.683594 314.0625 336.46875 324.773438 C 337.1875 334.535156 327.941406 348.074219 321.550781 353.859375 C 316.875 358.078125 310.957031 361.0625 311.136719 350.363281 C 311.242188 343.710938 315.71875 336.34375 315.550781 332.1875 C 315.425781 328.980469 312.480469 327.238281 310.867188 325.742188 C 309.078125 324.078125 307.226562 322.011719 305.261719 320.257812 C 304.113281 319.242188 303.277344 318.84375 302.171875 317.785156 C 291.507812 307.59375 278.683594 300.089844 273.378906 285.054688 C 269.503906 274.082031 265.703125 263.140625 261.601562 252.449219 C 259.9375 248.132812 257.328125 239.320312 252.46875 239.277344 C 248.730469 239.234375 248.292969 242.117188 247.277344 245.292969 C 237.390625 276.324219 228.4375 312.355469 224.332031 345.402344 C 223.921875 348.6875 223.496094 351.929688 223.113281 355.230469 C 222.613281 359.449219 222.996094 361.425781 220.183594 363.472656 C 213.339844 368.441406 188.121094 365.136719 182.835938 361.085938 Z M 173.820312 357.402344 L 173.640625 361.488281 C 171.378906 361.960938 169.449219 362.902344 167.152344 361.40625 L 164.632812 360.570312 C 163.894531 356.582031 165.96875 354.011719 167.792969 351.421875 C 173.507812 343.339844 182.292969 341.113281 172.199219 324.691406 C 165.308594 313.484375 157.679688 304.246094 151.351562 292.070312 C 147.800781 285.234375 135.660156 254.398438 132.011719 244.824219 C 130.730469 241.449219 129.511719 237.933594 125.03125 238.628906 C 121.488281 239.179688 120.859375 243.121094 119.417969 246.574219 C 118.019531 249.941406 116.835938 252.886719 115.527344 256.285156 C 105.371094 282.644531 97.421875 309.089844 89.0625 336.769531 C 87.125 343.179688 84.90625 350.921875 82.316406 356.761719 C 80.535156 360.765625 79.816406 362.164062 74.699219 361.65625 C 65.867188 360.785156 35.675781 353.363281 38.800781 344.058594 C 40.578125 338.773438 54.304688 338.648438 59.671875 339.324219 C 64.835938 339.972656 66.515625 339.246094 67.28125 334.117188 C 73.183594 294.828125 85.101562 262.25 92.160156 225.277344 C 97.074219 199.542969 96.078125 174.886719 96.09375 148.566406 C 96.09375 145.824219 96.523438 137.949219 95.640625 135.925781 C 94.023438 132.199219 89.097656 133.160156 87.816406 136.765625 C 85.261719 143.957031 88.566406 169.824219 86.109375 174.914062 L 72.0625 201.234375 C 68.484375 207.347656 60.457031 224.039062 51.636719 218.734375 C 48.859375 217.070312 49.203125 212.109375 50.058594 208.488281 C 51.421875 202.773438 55.703125 194.363281 58.222656 189.386719 C 70.175781 165.808594 79.46875 127.230469 88.8125 113.042969 C 91.832031 108.476562 97.609375 104.292969 104.410156 101.925781 C 107.953125 100.6875 111.824219 100.304688 111.253906 95.675781 C 110.808594 92.109375 107.0625 90.753906 104.25 88.9375 C 99.78125 86.074219 94.101562 80.039062 91.21875 75.257812 C 70.21875 40.445312 103.25 -2.074219 143.464844 10.902344 C 172.402344 20.230469 182.730469 57.882812 164.507812 78.78125 C 151.414062 93.789062 141.410156 90.34375 144.4375 97.660156 C 146.796875 103.339844 157.929688 97.894531 170.933594 111.546875 C 182.328125 123.511719 196.847656 148.628906 198.617188 164.027344 C 200.796875 182.890625 182.953125 195.457031 171.414062 203.210938 C 165.949219 206.886719 149.046875 219.035156 143.714844 210.402344 C 137.9375 201.019531 152.484375 195.121094 160.148438 189.429688 C 164.652344 186.085938 165.070312 188.613281 171.265625 188.175781 C 191.746094 186.714844 196.515625 160.335938 177.449219 151.433594 C 173.292969 149.492188 171.023438 150.375 168.96875 146.332031 C 165.53125 139.59375 164.617188 134.839844 160.921875 134.21875 C 151.03125 132.535156 159.507812 147.355469 161.347656 149.910156 C 157.308594 152.917969 152.964844 153.398438 150.089844 162.71875 C 147.847656 169.992188 150.328125 178.066406 154.671875 181.679688 C 152.902344 184.046875 145.292969 187.359375 140.191406 192.171875 C 127.84375 203.804688 133.792969 220.03125 146.582031 222.1875 C 153.835938 223.414062 161.125 220.03125 166.546875 217.398438 L 170.117188 252.609375 C 173.019531 276.332031 182.816406 295.738281 193.613281 316.378906 C 195.6875 320.355469 195.476562 319.179688 195.003906 324.121094 C 194.699219 327.289062 194.824219 341.710938 192.964844 342.75 L 190.800781 343.675781 C 184.679688 345.824219 174.691406 350.238281 173.820312 357.402344 Z M 160.15625 10.335938 C 151.414062 4.210938 141.605469 -0.0351562 128.371094 0.0429688 C 102.886719 0.195312 86.019531 16.367188 78.953125 35.105469 C 74.804688 46.089844 74.917969 59.964844 78.890625 70.914062 C 84.605469 86.660156 92.882812 90.433594 96.585938 95.125 C 80.617188 100.820312 73.824219 120.992188 69.109375 135.207031 C 63.242188 152.839844 57.882812 168.023438 50.460938 184.171875 C 47.03125 191.628906 42.414062 199.5 40.722656 208.203125 C 38.613281 219.019531 43.125 227.359375 52.800781 228.675781 C 68.804688 230.855469 77.199219 211.382812 83.394531 199.945312 C 83.945312 198.929688 84.335938 198.144531 84.765625 197.300781 C 84.953125 196.953125 85.335938 196.214844 85.503906 195.964844 L 86.339844 194.984375 C 86.382812 194.78125 86.542969 194.761719 86.660156 194.664062 C 86.347656 216.347656 78.703125 243.710938 73.550781 263.703125 C 66.332031 291.652344 64.015625 301.289062 58.523438 329.996094 C 51.964844 330.238281 48.839844 329.328125 42.199219 331.269531 C 24.308594 336.484375 25.902344 351.929688 39.75 360.277344 C 46.5625 364.382812 57.027344 367.710938 65.789062 369.542969 C 79.289062 372.375 85.859375 371.6875 90.628906 361.023438 C 94.316406 352.800781 96.488281 343.402344 99.316406 334.375 C 108.484375 305.199219 113.40625 284.59375 125.914062 255.15625 C 127.410156 257.089844 131.914062 269.058594 133.203125 272.363281 C 137.929688 284.476562 142.015625 295.390625 148.878906 306.113281 C 150.960938 309.371094 167.640625 333.164062 167.480469 336.15625 C 167.339844 338.691406 159.542969 346.542969 157.558594 350.28125 C 153.84375 357.261719 154.40625 364 159.65625 368.011719 C 166.910156 373.558594 176.425781 368.726562 179.808594 370.007812 C 183.496094 371.394531 184.804688 372.222656 189.316406 373.167969 C 192.789062 373.894531 196.304688 374.242188 199.996094 374.5625 C 215.128906 375.855469 230.003906 375.765625 231.96875 358.097656 C 232.769531 350.878906 233.605469 343.695312 234.753906 336.574219 C 237.015625 322.492188 239.410156 309.238281 242.703125 295.648438 C 244.164062 289.59375 251.390625 260.496094 253.511719 257.507812 C 254.730469 261.296875 256.589844 265.269531 257.988281 269.148438 C 261.457031 278.78125 266.515625 295.921875 272.523438 302.546875 C 277.347656 307.867188 301.328125 330.273438 305.867188 333.210938 C 304.585938 338.835938 302.464844 342.144531 301.949219 348.910156 C 300.871094 363.019531 312.738281 377.046875 331.410156 357.144531 C 333.558594 354.867188 333.929688 354.546875 335.691406 351.847656 C 339.859375 345.484375 342.957031 340.910156 344.984375 332.425781 C 348.449219 317.917969 340.695312 312.542969 334.910156 305.75 C 331.527344 301.769531 328.847656 299.316406 325.339844 295.628906 L 315.53125 286.265625 C 308.179688 279.660156 305.882812 272.914062 303.925781 259.542969 C 300.722656 237.648438 298.042969 211.988281 296.882812 189.761719 C 298.613281 191.824219 306.042969 210.074219 308.164062 214.417969 C 322.660156 244.003906 344.355469 236.027344 343.054688 216.785156 C 342.457031 207.9375 337.980469 197.238281 335.203125 189.421875 C 330.644531 176.597656 309.648438 126.261719 301.085938 116.097656 C 295.816406 109.839844 289.238281 103.785156 281.726562 100.304688 L 289.726562 92 C 293.546875 86.855469 296.832031 81.460938 298.933594 74.957031 C 310.039062 40.625 285.472656 3.335938 247.421875 4.601562 C 235.386719 5.003906 222.730469 9.800781 216.195312 15.941406 C 214.078125 17.925781 212.503906 18.621094 210.582031 20.925781 C 205.445312 27.058594 201.882812 32.613281 199.265625 40.882812 C 195.359375 53.238281 196.027344 65.789062 200.550781 77.394531 C 202.4375 82.253906 205.363281 87.613281 208.496094 90.648438 C 210.347656 92.453125 211.746094 94.199219 213.695312 96.03125 L 219.117188 100.457031 C 219.167969 100.367188 219.304688 100.679688 219.390625 100.796875 C 214.578125 102.078125 207.3125 109.25 204.9375 112.144531 L 198.644531 118.953125 C 197.425781 120.464844 197.378906 121.035156 195.777344 122.664062 C 194.675781 123.796875 193.960938 124.722656 193.089844 125.71875 C 192.226562 123.957031 190.988281 122.523438 189.894531 120.847656 C 186.039062 114.984375 184.125 112.542969 179.535156 107.507812 C 177.105469 104.835938 174.574219 102.226562 171.425781 99.949219 C 169.964844 98.890625 168.503906 97.714844 166.601562 96.710938 C 165.773438 96.265625 164.847656 95.847656 163.902344 95.375 C 163.511719 95.179688 162.933594 94.886719 162.578125 94.671875 C 161.519531 94.011719 162.246094 94.539062 161.660156 93.996094 C 165.949219 91.582031 169.539062 87.125 172.339844 83.570312 C 189.992188 61.203125 183.46875 26.667969 160.15625 10.335938 Z M 160.15625 10.335938 " fill-opacity="1" fill-rule="evenodd"/></g><path fill="#c40000" d="M 253.8125 73.085938 C 245.847656 70.523438 245.097656 79.804688 235.46875 77.304688 C 231.933594 76.378906 229.761719 73.398438 227.652344 72.820312 C 223.398438 71.644531 220.65625 75.285156 224.429688 78.757812 C 232.558594 86.222656 240.566406 88.199219 250.476562 80.992188 C 253.171875 79.03125 255.324219 77.367188 253.8125 73.085938 Z M 253.8125 73.085938 " fill-opacity="1" fill-rule="evenodd"/><path fill="#c40000" d="M 128.003906 68.269531 C 120.664062 71.253906 132.9375 79.113281 137.148438 80.242188 C 147.828125 83.125 157.957031 74.394531 157.566406 70.976562 C 157.378906 69.285156 155.714844 68.15625 154.03125 68.066406 C 151.566406 67.921875 148.574219 71.269531 145.984375 72.367188 C 136.355469 76.441406 133.160156 66.179688 128.003906 68.269531 Z M 128.003906 68.269531 " fill-opacity="1" fill-rule="evenodd"/><path fill="#c40000" d="M 158.828125 43.054688 C 151.878906 45.019531 153.578125 58.132812 161.519531 55.71875 C 167.269531 53.976562 166.128906 40.972656 158.828125 43.054688 Z M 158.828125 43.054688 " fill-opacity="1" fill-rule="evenodd"/><path fill="#c40000" d="M 255.003906 47.503906 C 248.230469 49.925781 250.859375 62.476562 258.253906 60.054688 C 264.066406 58.160156 262.394531 44.859375 255.003906 47.503906 Z M 255.003906 47.503906 " fill-opacity="1" fill-rule="evenodd"/><path fill="#c40000" d="M 218.796875 47.558594 C 215.609375 48.574219 214.195312 51.324219 215.023438 55.738281 C 215.617188 58.953125 217.941406 61.488281 221.945312 60.082031 C 227.589844 58.113281 225.933594 45.269531 218.796875 47.558594 Z M 218.796875 47.558594 " fill-opacity="1" fill-rule="evenodd"/><path fill="#c40000" d="M 121.117188 43.828125 C 118.472656 45.796875 117.429688 48.492188 118.703125 52.3125 C 119.585938 54.972656 122.585938 57.199219 125.96875 55.398438 C 131.53125 52.4375 128.183594 38.558594 121.117188 43.828125 Z M 121.117188 43.828125 " fill-opacity="1" fill-rule="evenodd"/><path fill="#c40000" d="M 167.152344 361.40625 C 169.449219 362.902344 171.378906 361.960938 173.640625 361.488281 L 173.820312 357.402344 C 172.820312 358.90625 173.203125 359.289062 173.160156 361.371094 Z M 167.152344 361.40625 " fill-opacity="1" fill-rule="evenodd"/></svg>